<?xml version="1.0" encoding="UTF-8" standalone="no"?>
<svg
   width="512"
   height="512"
   stroke="#000"
   stroke-linecap="round"
   stroke-linejoin="round"
   fill="#fff"
   fill-rule="evenodd"
   font-family="Roboto"
   font-size="14"
   text-anchor="middle"
   version="1.1"
   id="svg148"
   sodipodi:docname="15-puzzle-online-logo.svg"
   inkscape:version="1.1 (1:1.1+202105261517+ce6663b3b7)"
   xmlns:inkscape="http://www.inkscape.org/namespaces/inkscape"
   xmlns:sodipodi="http://sodipodi.sourceforge.net/DTD/sodipodi-0.dtd"
   xmlns="http://www.w3.org/2000/svg"
   xmlns:svg="http://www.w3.org/2000/svg">
  <sodipodi:namedview
     id="namedview150"
     pagecolor="#505050"
     bordercolor="#eeeeee"
     borderopacity="1"
     inkscape:pageshadow="0"
     inkscape:pageopacity="0"
     inkscape:pagecheckerboard="0"
     showgrid="false"
     inkscape:zoom="0.82226563"
     inkscape:cx="240.19002"
     inkscape:cy="271.80998"
     inkscape:window-width="1096"
     inkscape:window-height="703"
     inkscape:window-x="804"
     inkscape:window-y="0"
     inkscape:window-maximized="0"
     inkscape:current-layer="svg148"
     inkscape:snap-smooth-nodes="false"
     inkscape:snap-midpoints="true"
     inkscape:object-nodes="false" />
  <defs
     id="defs122" />
  <rect
     x="29.7362"
     y="29.7362"
     width="5.6cm"
     height="5.6cm"
     stroke="none"
     fill="#e0e0e0"
     rx="8"
     id="rect124" />
  <g
     aria-label="1"
     id="text128"
     style="font-size:96px;fill:#000000;stroke:none">
    <path
       d="m 117.37108,167.243 h 38.592 v -7.296 h -14.112 V 96.778996 h -6.72 c -3.84,2.304 -8.352,3.936004 -14.592,5.088004 v 5.568 h 12.48 v 52.512 h -15.648 z"
       id="path4874" />
  </g>
  <rect
     x="271.626"
     y="29.7362"
     width="5.6cm"
     height="5.6cm"
     stroke="none"
     fill="#e0e0e0"
     rx="8"
     id="rect130" />
  <g
     aria-label="2"
     id="text134"
     style="font-size:96px;fill:#000000;stroke:none">
    <path
       d="m 355.03687,167.243 h 44.256 v -7.584 h -19.488 c -3.552,0 -7.872,0.384 -11.52,0.672 16.512,-15.648 27.552,-29.952 27.552,-43.968 0,-12.576 -7.872,-20.832004 -20.448,-20.832004 -8.928,0 -14.976,4.128 -20.736,10.368004 l 5.088,4.992 c 3.84,-4.608 8.832,-8.16 14.592,-8.16 8.736,0 12.96,5.856 12.96,13.92 0,12.096 -10.176,26.112 -32.256,45.408 z"
       id="path4895" />
  </g>
  <rect
     x="29.7362"
     y="267.8464"
     width="5.6cm"
     height="5.6cm"
     stroke="none"
     rx="8"
     fill="#e0e0e0"
     id="rect136" />
  <g
     aria-label="Online"
     id="text140"
     style="font-size:64px;fill:#000000;stroke:none">
    <path
       d="m 57.563004,352.41821 q -6.875,0 -10.9375,5.125 -4.03125,5.125 -4.03125,13.96875 0,8.8125 4.03125,13.9375 4.0625,5.125 10.9375,5.125 6.875,0 10.875,-5.125 4.03125,-5.125 4.03125,-13.9375 0,-8.84375 -4.03125,-13.96875 -4,-5.125 -10.875,-5.125 z m 0,-5.125 q 9.8125,0 15.6875,6.59375 5.875,6.5625 5.875,17.625 0,11.03125 -5.875,17.625 -5.875,6.5625 -15.6875,6.5625 -9.84375,0 -15.75,-6.5625 -5.875,-6.5625 -5.875,-17.625 0,-11.0625 5.875,-17.625 5.90625,-6.59375 15.75,-6.59375 z"
       id="path4937" />
    <path
       d="m 117.84425,373.66821 v 21.125 h -5.75 v -20.9375 q 0,-4.96875 -1.9375,-7.4375 -1.9375,-2.46875 -5.8125,-2.46875 -4.656246,0 -7.343746,2.96875 -2.6875,2.96875 -2.6875,8.09375 v 19.78125 h -5.78125 v -35 h 5.78125 v 5.4375 q 2.0625,-3.15625 4.84375,-4.71875 2.812496,-1.5625 6.468746,-1.5625 6.03125,0 9.125,3.75 3.09375,3.71875 3.09375,10.96875 z"
       id="path4939" />
    <path
       d="m 129.313,346.16821 h 5.75 v 48.625 h -5.75 z"
       id="path4941" />
    <path
       d="m 147.09425,359.79321 h 5.75 v 35 h -5.75 z m 0,-13.625 h 5.75 v 7.28125 h -5.75 z"
       id="path4943" />
    <path
       d="m 193.96925,373.66821 v 21.125 h -5.75 v -20.9375 q 0,-4.96875 -1.9375,-7.4375 -1.9375,-2.46875 -5.8125,-2.46875 -4.65625,0 -7.34375,2.96875 -2.6875,2.96875 -2.6875,8.09375 v 19.78125 h -5.78125 v -35 h 5.78125 v 5.4375 q 2.0625,-3.15625 4.84375,-4.71875 2.8125,-1.5625 6.46875,-1.5625 6.03125,0 9.125,3.75 3.09375,3.71875 3.09375,10.96875 z"
       id="path4945" />
    <path
       d="m 235.3755,375.85571 v 2.8125 H 208.938 q 0.375,5.9375 3.5625,9.0625 3.21875,3.09375 8.9375,3.09375 3.3125,0 6.40625,-0.8125 3.125,-0.8125 6.1875,-2.4375 v 5.4375 q -3.09375,1.3125 -6.34375,2 -3.25,0.6875 -6.59375,0.6875 -8.375,0 -13.28125,-4.875 -4.875,-4.875 -4.875,-13.1875 0,-8.59375 4.625,-13.625 4.65625,-5.0625 12.53125,-5.0625 7.0625,0 11.15625,4.5625 4.125,4.53125 4.125,12.34375 z m -5.75,-1.6875 q -0.0625,-4.71875 -2.65625,-7.53125 -2.5625,-2.8125 -6.8125,-2.8125 -4.8125,0 -7.71875,2.71875 -2.875,2.71875 -3.3125,7.65625 z"
       id="path4947" />
  </g>
  <rect
     x="271.62601"
     y="267.84641"
     width="211.65401"
     height="5.5999999cm"
     stroke="none"
     fill="#333333"
     rx="8"
     id="rect142" />
  <g
     aria-label="3"
     id="text146"
     style="font-size:96px;stroke:none">
    <path
       d="m 376.15687,406.60121 c 12.48,0 22.56,-7.488 22.56,-20.064 0,-9.6 -6.624,-15.936 -14.88,-17.856 v -0.384 c 7.392,-2.784 12.48,-8.448 12.48,-16.992 0,-11.136 -8.64,-17.664 -20.448,-17.664 -8.16,0 -14.4,3.552 -19.68,8.448 l 4.704,5.568 c 3.936,-4.032 8.928,-6.816 14.592,-6.816 7.296,0 11.904,4.416 11.904,11.136 0,7.584 -4.992,13.44 -19.488,13.44 v 6.72 c 16.224,0 21.888,5.664 21.888,14.016 0,8.16 -5.952,13.152 -14.304,13.152 -7.968,0 -13.344,-3.744 -17.472,-8.064 l -4.416,5.76 c 4.608,4.992 11.52,9.6 22.56,9.6 z"
       id="path4916" />
  </g>
</svg>
